<?xml version="1.0" encoding="UTF-8" standalone="no"?>
<!-- Generator: Adobe Illustrator 16.0.4, SVG Export Plug-In . SVG Version: 6.00 Build 0)  -->

<svg xmlns:dc="http://purl.org/dc/elements/1.1/"
   xmlns:cc="http://creativecommons.org/ns#"
   xmlns:rdf="http://www.w3.org/1999/02/22-rdf-syntax-ns#"
   xmlns:svg="http://www.w3.org/2000/svg"
   xmlns="http://www.w3.org/2000/svg"
   xmlns:xlink="http://www.w3.org/1999/xlink"
   xmlns:sodipodi="http://sodipodi.sourceforge.net/DTD/sodipodi-0.dtd"
   xmlns:inkscape="http://www.inkscape.org/namespaces/inkscape"
   id="Layer_1"
   x="0px"
   y="0px"
   width="385px"
   height="11px"
   viewBox="0 0 385 11"
   enable-background="new 0 0 385 11"
   xml:space="preserve"
   inkscape:version="0.91 r13725"
   sodipodi:docname="brand.svg">
   <style type="text/css">
   	.st0{fill:#FFFFFF;}
   </style>
   <g>
   	<g>
   		<path class="st0" d="M80.7,8.4c-0.2,0.5-0.5,1-0.8,1.4c-0.4,0.4-0.8,0.7-1.4,0.9c-0.6,0.2-1.2,0.3-1.9,0.3c-0.7,0-1.3-0.1-1.8-0.3
   			c-0.5-0.2-0.9-0.4-1.3-0.7c-0.4-0.3-0.7-0.7-0.9-1.1c-0.2-0.5-0.4-0.9-0.5-1.5l2.8-0.7c0.2,0.6,0.4,1,0.6,1.4
   			c0.2,0.3,0.6,0.5,1.1,0.5c0.5,0,0.8-0.1,1-0.4C77.9,7.6,78,7.2,78,6.7V0.3h3v6.2C81,7.2,80.9,7.8,80.7,8.4z"/>
   		<path class="st0" d="M91.1,9.9c-0.6,0.6-1.6,0.9-3,0.9h-5V0.3h5.1c1.3,0,2.2,0.2,2.8,0.7c0.6,0.5,0.9,1.1,0.9,2
   			c0,0.6-0.1,1-0.4,1.3c-0.2,0.3-0.5,0.5-0.9,0.7c0.5,0.2,0.8,0.5,1.1,0.9c0.3,0.4,0.4,0.9,0.4,1.5C92.1,8.5,91.7,9.3,91.1,9.9z
   			 M88.8,2.8c-0.1-0.2-0.4-0.2-0.7-0.2h-2.2v1.7h2.2c0.3,0,0.6-0.1,0.7-0.2C88.9,3.9,89,3.7,89,3.4C89,3.2,88.9,3,88.8,2.8z M89,6.7
   			c-0.2-0.2-0.4-0.3-0.8-0.3h-2.3v2h2.3c0.4,0,0.6-0.1,0.8-0.3c0.2-0.2,0.3-0.4,0.3-0.7C89.2,7.1,89.1,6.9,89,6.7z"/>
   		<path class="st0" d="M102.6,7.8c-0.2,0.7-0.6,1.2-1,1.7c-0.4,0.5-0.9,0.8-1.5,1c-0.6,0.2-1.3,0.4-2,0.4c-0.7,0-1.4-0.1-2-0.4
   			c-0.6-0.2-1.1-0.6-1.5-1c-0.4-0.5-0.8-1-1-1.7c-0.2-0.7-0.4-1.4-0.4-2.3c0-0.9,0.1-1.6,0.4-2.3c0.2-0.7,0.6-1.2,1-1.7
   			c0.4-0.5,0.9-0.8,1.5-1c0.6-0.2,1.3-0.4,2-0.4c0.7,0,1.4,0.1,2,0.4c0.6,0.2,1.1,0.6,1.5,1c0.4,0.5,0.8,1,1,1.7
   			c0.2,0.7,0.4,1.4,0.4,2.3C103,6.4,102.9,7.2,102.6,7.8z M99.5,3.4c-0.3-0.5-0.8-0.7-1.4-0.7c-0.6,0-1,0.2-1.4,0.7
   			c-0.3,0.5-0.5,1.2-0.5,2.1c0,0.9,0.2,1.7,0.5,2.2c0.3,0.5,0.8,0.7,1.4,0.7c0.6,0,1-0.2,1.4-0.7c0.3-0.5,0.5-1.2,0.5-2.1
   			C100,4.6,99.8,3.9,99.5,3.4z"/>
   		<path class="st0" d="M112.5,9.1c-0.2,0.4-0.5,0.8-0.9,1c-0.4,0.3-0.8,0.5-1.4,0.6c-0.5,0.1-1.1,0.2-1.7,0.2
   			c-0.8,0-1.7-0.1-2.4-0.4c-0.8-0.2-1.4-0.5-2-0.9l1.4-2.3c0.2,0.1,0.4,0.3,0.7,0.4c0.3,0.1,0.5,0.2,0.8,0.3
   			c0.3,0.1,0.6,0.2,0.8,0.2c0.3,0.1,0.5,0.1,0.8,0.1c0.5,0,0.9,0,1.1-0.1c0.2-0.1,0.3-0.3,0.3-0.5c0-0.1,0-0.2-0.1-0.3
   			c-0.1-0.1-0.2-0.2-0.3-0.2c-0.1-0.1-0.3-0.2-0.5-0.2c-0.2-0.1-0.5-0.2-0.9-0.2c-0.6-0.1-1.2-0.3-1.6-0.5c-0.5-0.2-0.9-0.4-1.2-0.6
   			c-0.3-0.3-0.5-0.6-0.7-0.9c-0.2-0.4-0.2-0.8-0.2-1.3c0-0.5,0.1-0.9,0.3-1.3c0.2-0.4,0.5-0.8,0.8-1c0.4-0.3,0.8-0.5,1.3-0.7
   			c0.5-0.2,1.1-0.2,1.7-0.2c0.9,0,1.7,0.1,2.3,0.3c0.7,0.2,1.3,0.5,1.8,0.9l-1.4,2.3c-0.5-0.3-0.9-0.6-1.4-0.7
   			c-0.5-0.2-1-0.3-1.5-0.3c-0.4,0-0.7,0.1-0.9,0.2c-0.1,0.1-0.2,0.3-0.2,0.5c0,0.1,0,0.2,0.1,0.3c0.1,0.1,0.1,0.1,0.3,0.2
   			c0.1,0.1,0.3,0.1,0.5,0.2c0.2,0.1,0.5,0.1,0.8,0.2c0.7,0.2,1.2,0.3,1.7,0.5c0.5,0.2,0.9,0.4,1.2,0.7c0.3,0.3,0.5,0.6,0.7,0.9
   			c0.1,0.4,0.2,0.8,0.2,1.3C112.8,8.2,112.7,8.7,112.5,9.1z"/>
   		<path class="st0" d="M122.4,9.1c-0.2,0.4-0.5,0.8-0.9,1c-0.4,0.3-0.8,0.5-1.4,0.6c-0.5,0.1-1.1,0.2-1.7,0.2
   			c-0.8,0-1.7-0.1-2.4-0.4c-0.8-0.2-1.4-0.5-2-0.9l1.4-2.3c0.2,0.1,0.4,0.3,0.7,0.4c0.3,0.1,0.5,0.2,0.8,0.3
   			c0.3,0.1,0.6,0.2,0.8,0.2c0.3,0.1,0.5,0.1,0.8,0.1c0.5,0,0.9,0,1.1-0.1c0.2-0.1,0.3-0.3,0.3-0.5c0-0.1,0-0.2-0.1-0.3
   			c-0.1-0.1-0.1-0.2-0.3-0.2c-0.1-0.1-0.3-0.2-0.5-0.2c-0.2-0.1-0.5-0.2-0.9-0.2c-0.6-0.1-1.2-0.3-1.6-0.5c-0.5-0.2-0.9-0.4-1.2-0.6
   			c-0.3-0.3-0.5-0.6-0.7-0.9c-0.2-0.4-0.2-0.8-0.2-1.3c0-0.5,0.1-0.9,0.3-1.3c0.2-0.4,0.5-0.8,0.8-1c0.4-0.3,0.8-0.5,1.3-0.7
   			c0.5-0.2,1.1-0.2,1.7-0.2c0.9,0,1.7,0.1,2.3,0.3c0.7,0.2,1.3,0.5,1.8,0.9l-1.4,2.3c-0.5-0.3-0.9-0.6-1.4-0.7
   			c-0.5-0.2-1-0.3-1.5-0.3c-0.4,0-0.7,0.1-0.9,0.2c-0.1,0.1-0.2,0.3-0.2,0.5c0,0.1,0,0.2,0.1,0.3c0.1,0.1,0.1,0.1,0.3,0.2
   			c0.1,0.1,0.3,0.1,0.5,0.2c0.2,0.1,0.5,0.1,0.8,0.2c0.7,0.2,1.2,0.3,1.7,0.5c0.5,0.2,0.9,0.4,1.2,0.7c0.3,0.3,0.5,0.6,0.7,0.9
   			c0.1,0.4,0.2,0.8,0.2,1.3C122.7,8.2,122.6,8.7,122.4,9.1z"/>
   	</g>
   	<g>
   		<g>
   			<path class="st0" d="M5.9,10.7L4.2,7.2H3.1v3.5H0.2V0.3h4.7c0.6,0,1.2,0.1,1.7,0.2c0.5,0.1,0.9,0.3,1.3,0.6
   				c0.4,0.3,0.6,0.6,0.8,1C8.9,2.6,9,3.1,9,3.7c0,0.8-0.2,1.4-0.5,1.9C8.1,6.1,7.7,6.5,7.1,6.8l2.1,4H5.9z M5.8,3
   				c-0.2-0.2-0.5-0.3-1-0.3H3.1V5h1.7c0.5,0,0.8-0.1,1-0.3C6,4.5,6.1,4.2,6.1,3.8C6.1,3.5,6,3.2,5.8,3z"/>
   		</g>
   		<g>
   			<path class="st0" d="M10.9,10.7V0.3h8v2.4h-5.1v1.4h3.1v2.4h-3.1v1.8H19v2.4H10.9z"/>
   		</g>
   		<g>
   			<path class="st0" d="M29.5,8c-0.2,0.7-0.6,1.2-1.1,1.6c-0.5,0.4-1.1,0.7-1.8,0.9c-0.7,0.2-1.5,0.3-2.4,0.3h-3.4V0.3h3.6
   				c0.8,0,1.6,0.1,2.2,0.3c0.7,0.2,1.2,0.5,1.7,0.9c0.5,0.4,0.8,0.9,1.1,1.6c0.3,0.7,0.4,1.5,0.4,2.5C29.8,6.5,29.7,7.3,29.5,8z
   				 M26.7,4.3c-0.1-0.3-0.2-0.6-0.4-0.9c-0.2-0.2-0.4-0.4-0.7-0.5c-0.3-0.1-0.7-0.2-1.1-0.2h-0.7v5.5h0.6c0.4,0,0.8,0,1.1-0.1
   				c0.3-0.1,0.6-0.2,0.8-0.5c0.2-0.2,0.4-0.5,0.4-0.8c0.1-0.4,0.1-0.8,0.1-1.3C26.9,5,26.8,4.6,26.7,4.3z"/>
   		</g>
   		<g>
   			<path class="st0" d="M42.1,10.7V6.6h-3.2v4.1h-2.9V0.3h2.9v3.8h3.2V0.3H45v10.4H42.1z"/>
   		</g>
   		<g>
   			<path class="st0" d="M53.8,10.7l-0.6-1.8h-3.1l-0.6,1.8h-3.1l3.8-10.4h2.9l3.8,10.4H53.8z M52.4,5.9c-0.1-0.3-0.2-0.6-0.2-0.9
   				c-0.1-0.2-0.1-0.5-0.2-0.7c-0.1-0.2-0.1-0.4-0.1-0.5c0-0.2-0.1-0.3-0.1-0.5c0,0.2-0.1,0.4-0.1,0.5c0,0.2-0.1,0.4-0.1,0.5
   				c-0.1,0.2-0.1,0.4-0.2,0.7c-0.1,0.2-0.1,0.5-0.2,0.9l-0.2,0.7h1.7L52.4,5.9z"/>
   		</g>
   		<g>
   			<path class="st0" d="M62.4,2.8v7.9h-2.9V2.8h-2.9V0.3h8.7v2.5H62.4z"/>
   		</g>
   	</g>
   	<g>
   		<path class="st0" d="M68.7,1.8c-0.1,0.1-0.1,0.2-0.2,0.3c-0.1,0.1-0.2,0.2-0.3,0.2c-0.1,0.1-0.3,0.1-0.4,0.1c-0.1,0-0.3,0-0.4-0.1
   			c-0.1-0.1-0.2-0.1-0.3-0.2c-0.1-0.1-0.2-0.2-0.2-0.3c-0.1-0.1-0.1-0.3-0.1-0.4c0-0.1,0-0.3,0.1-0.4c0.1-0.1,0.1-0.2,0.2-0.3
   			c0.1-0.1,0.2-0.2,0.3-0.2c0.1-0.1,0.3-0.1,0.4-0.1c0.1,0,0.3,0,0.4,0.1c0.1,0.1,0.2,0.1,0.3,0.2c0.1,0.1,0.2,0.2,0.2,0.3
   			c0.1,0.1,0.1,0.3,0.1,0.4C68.8,1.5,68.8,1.7,68.7,1.8z M68.5,1c0-0.1-0.1-0.2-0.2-0.3c-0.1-0.1-0.2-0.1-0.3-0.2
   			c-0.1,0-0.2-0.1-0.3-0.1c-0.1,0-0.2,0-0.3,0.1c-0.1,0-0.2,0.1-0.3,0.2C67,0.8,67,0.9,66.9,1c0,0.1-0.1,0.2-0.1,0.3
   			c0,0.1,0,0.2,0.1,0.3C67,1.8,67,1.9,67.1,2c0.1,0.1,0.2,0.1,0.3,0.2c0.1,0,0.2,0.1,0.3,0.1c0.1,0,0.2,0,0.3-0.1
   			c0.1,0,0.2-0.1,0.3-0.2c0.1-0.1,0.1-0.2,0.2-0.3c0-0.1,0.1-0.2,0.1-0.3C68.6,1.3,68.6,1.1,68.5,1z M68.1,1.3
   			c0,0.1-0.1,0.1-0.2,0.1l0.2,0.5H68l-0.2-0.4h-0.2v0.4h-0.2V0.8h0.5c0.1,0,0.1,0,0.1,0c0,0,0.1,0,0.1,0.1c0,0,0.1,0.1,0.1,0.1
   			c0,0,0,0.1,0,0.2C68.2,1.2,68.2,1.3,68.1,1.3z M68,1c0,0-0.1,0-0.1,0h-0.3v0.3h0.3c0.1,0,0.1,0,0.1,0c0,0,0.1-0.1,0.1-0.1
   			C68,1.1,68,1,68,1z"/>
   	</g>
   	<g>
   		<path class="st0" d="M126.7,1.8c-0.1,0.1-0.1,0.2-0.2,0.3c-0.1,0.1-0.2,0.2-0.3,0.2c-0.1,0.1-0.3,0.1-0.4,0.1
   			c-0.1,0-0.3,0-0.4-0.1c-0.1-0.1-0.2-0.1-0.3-0.2c-0.1-0.1-0.2-0.2-0.2-0.3c-0.1-0.1-0.1-0.3-0.1-0.4c0-0.1,0-0.3,0.1-0.4
   			c0.1-0.1,0.1-0.2,0.2-0.3c0.1-0.1,0.2-0.2,0.3-0.2c0.1-0.1,0.3-0.1,0.4-0.1c0.1,0,0.3,0,0.4,0.1c0.1,0.1,0.2,0.1,0.3,0.2
   			c0.1,0.1,0.2,0.2,0.2,0.3c0.1,0.1,0.1,0.3,0.1,0.4C126.7,1.5,126.7,1.7,126.7,1.8z M126.5,1c0-0.1-0.1-0.2-0.2-0.3
   			c-0.1-0.1-0.2-0.1-0.3-0.2c-0.1,0-0.2-0.1-0.3-0.1c-0.1,0-0.2,0-0.3,0.1c-0.1,0-0.2,0.1-0.3,0.2c-0.1,0.1-0.1,0.2-0.2,0.3
   			c0,0.1-0.1,0.2-0.1,0.3c0,0.1,0,0.2,0.1,0.3c0,0.1,0.1,0.2,0.2,0.3c0.1,0.1,0.2,0.1,0.3,0.2c0.1,0,0.2,0.1,0.3,0.1
   			c0.1,0,0.2,0,0.3-0.1c0.1,0,0.2-0.1,0.3-0.2c0.1-0.1,0.1-0.2,0.2-0.3c0-0.1,0.1-0.2,0.1-0.3C126.6,1.3,126.6,1.1,126.5,1z
   			 M126.1,1.3c0,0.1-0.1,0.1-0.2,0.1l0.2,0.5h-0.2l-0.2-0.4h-0.2v0.4h-0.2V0.8h0.5c0.1,0,0.1,0,0.1,0c0,0,0.1,0,0.1,0.1
   			c0,0,0.1,0.1,0.1,0.1c0,0,0,0.1,0,0.2C126.2,1.2,126.2,1.3,126.1,1.3z M125.9,1c0,0-0.1,0-0.1,0h-0.3v0.3h0.3c0.1,0,0.1,0,0.1,0
   			c0,0,0.1-0.1,0.1-0.1C126,1.1,126,1,125.9,1z"/>
   	</g>
   	<g>
   		<path class="st0" d="M139.8,7.9c-0.3,0.7-0.7,1.2-1.2,1.6c-0.5,0.4-1.1,0.7-1.7,0.9c-0.6,0.2-1.3,0.3-2,0.3h-3.1V0.2h3.3
   			c0.8,0,1.4,0.1,2.1,0.3c0.6,0.2,1.2,0.5,1.7,0.9c0.5,0.4,0.8,1,1.1,1.6c0.3,0.7,0.4,1.5,0.4,2.4C140.3,6.4,140.1,7.2,139.8,7.9z
   			 M137.4,3.1c-0.5-0.5-1.3-0.8-2.4-0.8h-1.1v6.4h1c0.6,0,1-0.1,1.4-0.2c0.4-0.2,0.7-0.4,1-0.7c0.3-0.3,0.5-0.6,0.6-1
   			c0.1-0.4,0.2-0.8,0.2-1.3C138.1,4.4,137.8,3.6,137.4,3.1z"/>
   		<path class="st0" d="M148.9,10.8l-0.8-2.3h-3.8l-0.8,2.3h-2.3l4-10.5h2l4,10.5H148.9z M146.7,4.5c-0.1-0.3-0.2-0.6-0.3-0.9
   			s-0.2-0.5-0.2-0.7c-0.1,0.2-0.1,0.4-0.2,0.7c-0.1,0.3-0.2,0.6-0.3,0.9l-0.7,1.9h2.4L146.7,4.5z"/>
   		<path class="st0" d="M156.2,2.3v8.5h-2.1V2.3h-3V0.2h8.1v2.1H156.2z"/>
   		<path class="st0" d="M166.8,10.8L166,8.4h-3.8l-0.8,2.3H159l4-10.5h2l4,10.5H166.8z M164.6,4.5c-0.1-0.3-0.2-0.6-0.3-0.9
   			s-0.2-0.5-0.2-0.7c-0.1,0.2-0.1,0.4-0.2,0.7c-0.1,0.3-0.2,0.6-0.3,0.9l-0.7,1.9h2.4L164.6,4.5z"/>
   		<path class="st0" d="M183.4,8.5c-0.2,0.5-0.5,1-0.9,1.3c-0.4,0.4-0.8,0.6-1.3,0.8c-0.5,0.2-1.1,0.3-1.7,0.3
   			c-0.7,0-1.3-0.1-1.9-0.4c-0.6-0.3-1-0.6-1.5-1.1c-0.4-0.5-0.7-1-0.9-1.7c-0.2-0.7-0.3-1.4-0.3-2.2c0-0.8,0.1-1.5,0.3-2.2
   			c0.2-0.7,0.6-1.2,1-1.7c0.4-0.5,0.9-0.8,1.5-1.1c0.6-0.3,1.2-0.4,1.9-0.4c0.5,0,1,0.1,1.4,0.2c0.4,0.1,0.8,0.3,1.1,0.5
   			c0.3,0.2,0.6,0.5,0.8,0.8c0.2,0.3,0.4,0.7,0.6,1.1l-2,0.8c-0.1-0.2-0.2-0.4-0.3-0.5c-0.1-0.2-0.3-0.3-0.4-0.4
   			c-0.2-0.1-0.3-0.2-0.5-0.3c-0.2-0.1-0.5-0.1-0.7-0.1c-0.4,0-0.7,0.1-1.1,0.2c-0.3,0.2-0.6,0.4-0.8,0.7c-0.2,0.3-0.4,0.6-0.5,1.1
   			C177.1,4.5,177,5,177,5.5c0,0.5,0.1,0.9,0.2,1.3c0.1,0.4,0.3,0.8,0.5,1.1c0.2,0.3,0.5,0.5,0.8,0.7c0.3,0.2,0.7,0.3,1.1,0.3
   			c0.4,0,0.7,0,0.9-0.1c0.3-0.1,0.5-0.2,0.6-0.3c0.2-0.1,0.3-0.3,0.4-0.5c0.1-0.2,0.1-0.4,0.2-0.6h-1.7v-2h3.8v1.4
   			C183.7,7.4,183.6,8,183.4,8.5z"/>
   		<path class="st0" d="M192,10.8L190.1,7H188v3.8h-2.1V0.2h4.9c0.5,0,1,0.1,1.4,0.2s0.8,0.3,1.2,0.6c0.3,0.3,0.6,0.6,0.8,1
   			c0.2,0.4,0.3,0.9,0.3,1.5c0,0.8-0.2,1.4-0.5,1.9c-0.3,0.5-0.8,0.9-1.5,1.2l2,4.1H192z M191.9,2.6c-0.3-0.2-0.6-0.3-1.1-0.3H188V5
   			h2.8c1,0,1.5-0.5,1.5-1.4C192.3,3.1,192.2,2.8,191.9,2.6z"/>
   		<path class="st0" d="M196.8,10.8V0.2h2.1v10.5H196.8z"/>
   		<path class="st0" d="M209.8,7.9c-0.3,0.7-0.7,1.2-1.2,1.6c-0.5,0.4-1.1,0.7-1.7,0.9c-0.6,0.2-1.3,0.3-2,0.3h-3.1V0.2h3.3
   			c0.8,0,1.4,0.1,2.1,0.3s1.2,0.5,1.7,0.9c0.5,0.4,0.8,1,1.1,1.6c0.3,0.7,0.4,1.5,0.4,2.4C210.3,6.4,210.1,7.2,209.8,7.9z
   			 M207.4,3.1c-0.5-0.5-1.3-0.8-2.4-0.8h-1.1v6.4h1c0.6,0,1-0.1,1.4-0.2c0.4-0.2,0.7-0.4,1-0.7c0.3-0.3,0.5-0.6,0.6-1
   			c0.1-0.4,0.2-0.8,0.2-1.3C208.1,4.4,207.9,3.6,207.4,3.1z"/>
   	</g>
   </g>
   <text
     xml:space="preserve"
     style="font-style:normal;font-variant:normal;font-weight:normal;font-stretch:normal;font-size:50px;line-height:125%;font-family:'Titillium Web';-inkscape-font-specification:'Titillium Web, Normal';text-align:start;letter-spacing:0px;word-spacing:0px;writing-mode:lr-tb;text-anchor:start;fill:#ffffff;fill-opacity:1;stroke:none;stroke-width:1px;stroke-linecap:butt;stroke-linejoin:miter;stroke-opacity:1"
     x="45.140942"
     y="9.77666"
     id="text5118"
     sodipodi:linespacing="125%"><tspan
       sodipodi:role="line"
       id="tspan5120"
       x="220"
       y="9.77666"
       style="font-style:normal;font-variant:normal;font-weight:normal;font-stretch:normal;font-size:8.75px;font-family:'Open Sans';-inkscape-font-specification:'Open Sans, Normal';text-anchor:start;text-align:start;writing-mode:lr;line-height:125%">SERVER ADMINISTRATION CONSOLE</tspan></text>
</svg>
